<?xml version="1.0" standalone="no"?><!DOCTYPE svg PUBLIC "-//W3C//DTD SVG 1.1//EN" "http://www.w3.org/Graphics/SVG/1.1/DTD/svg11.dtd"><svg t="1663583160834" class="icon" viewBox="0 0 1024 1024" version="1.1" xmlns="http://www.w3.org/2000/svg" p-id="12990" xmlns:xlink="http://www.w3.org/1999/xlink" width="200" height="200"><path d="M720.5 503.6H321.8c-22.9 0-41.5-18.6-41.5-41.5V137.9h314.6c12 0 23.9 2.8 34.6 8.2L762 212.7v249.4c0 22.9-18.6 41.5-41.5 41.5zM308 165.6v296.5c0 7.6 6.2 13.8 13.8 13.8h398.7c7.6 0 13.8-6.2 13.8-13.8V229.8l-117.3-59c-6.8-3.4-14.5-5.2-22.2-5.2H308z" fill="#3259CE" p-id="12991"></path><path d="M585.7 266.9c0 7.6-6.2 13.8-13.8 13.8H385.3c-7.6 0-13.8-6.2-13.8-13.8 0-7.6 6.2-13.8 13.8-13.8h186.6c7.6 0 13.8 6.2 13.8 13.8zM654.7 374.6c0 7.6-6.2 13.8-13.8 13.8H385.3c-7.6 0-13.8-6.2-13.8-13.8 0-7.6 6.2-13.8 13.8-13.8h255.6c7.6 0 13.8 6.2 13.8 13.8z" fill="#3259CE" p-id="12992"></path><path d="M852.1 262L651.4 153c-18.1-9.8-38.6-15-59.1-15H179.4c-22.9 0-41.5 18.6-41.5 41.5v438.3h27.7V179.4c0-7.6 6.2-13.8 13.8-13.8h412.9c16 0 31.9 4 46 11.7l200.7 109c13.4 7.3 21.7 21.3 21.7 36.5v524c0 7.6-6.2 13.8-13.8 13.8H179.4c-7.6 0-13.8-6.2-13.8-13.8V728.3h-27.7v118.5c0 22.9 18.6 41.5 41.5 41.5h667.3c22.9 0 41.5-18.6 41.5-41.5v-524c0-25.4-13.8-48.7-36.1-60.8z" fill="#3259CE" p-id="12993"></path><path d="M151.8 728.3m-13.8 0a13.8 13.8 0 1 0 27.6 0 13.8 13.8 0 1 0-27.6 0Z" fill="#3259CE" p-id="12994"></path><path d="M151.8 617.9m-13.8 0a13.8 13.8 0 1 0 27.6 0 13.8 13.8 0 1 0-27.6 0Z" fill="#3259CE" p-id="12995"></path></svg>